<svg xmlns="http://www.w3.org/2000/svg" viewBox="0 0 356.06 109.11"><defs><style>.cls-1{fill:#fff;}.cls-2{fill:#fbb462;}</style></defs><g id="Layer_2" data-name="Layer 2"><g id="Layer_1-2" data-name="Layer 1"><path class="cls-1" d="M183.31,56.08c-3.31,1.78-5.37-.12-6.87,3s7.31,9.76,12,7.06,5.93-14.23.71-14.6C185.9,51.26,186.18,54.53,183.31,56.08Z"/><path class="cls-1" d="M191.55,75.05c-.87.8-9.37-3.19-8.26-6.07.37-1,4.22-1.22,5.58-.23S192.68,74,191.55,75.05Z"/><path class="cls-1" d="M195.67,72.68c2-1.89-.06-9.39-2.41-9.05-1,.15-3,3.5-2.28,5S194.55,73.73,195.67,72.68Z"/><path class="cls-1" d="M181.45,72.64c-1.64.86-7.17-4.5-5-6.69.75-.74,3.76-.54,4.47.76S182.78,71.94,181.45,72.64Z"/><path class="cls-1" d="M199,64.61c1.39-1.21-1.59-8.31-4.42-7.08-1,.43-1.87,3.31-.92,4.44S197.83,65.6,199,64.61Z"/><path class="cls-1" d="M225.21,90.62c3-2.2,2.24-4.88,5.66-4.89s5.6,10.84,1.1,13.91-15.39-.88-13.45-5.73C219.75,90.85,222.56,92.53,225.21,90.62Z"/><path class="cls-1" d="M238.69,106.32c1.1-.44,1.22-9.82-1.86-10.09-1.05-.09-2.94,3.27-2.65,4.92S237.26,106.88,238.69,106.32Z"/><path class="cls-1" d="M234.75,109c-2.57,1-8.42-4.15-7.08-6.12.59-.87,4.47-1.22,5.47.12S236.19,108.44,234.75,109Z"/><path class="cls-1" d="M240.92,96.18c1.49-1.11-.92-8.42-3.84-7.41-1,.34-2.12,3.15-1.26,4.35S239.71,97.07,240.92,96.18Z"/><path class="cls-1" d="M226.06,108.44c-1.7.72-6.79-5.06-4.45-7.06.81-.69,3.79-.24,4.4,1.1S227.44,107.85,226.06,108.44Z"/><path class="cls-1" d="M262.31,86c-2.42,2.89-5,1.88-5.29,5.29s10.4,6.37,13.79,2.11.25-15.41-4.74-13.83C262.93,80.53,264.4,83.46,262.31,86Z"/><path class="cls-1" d="M277,100.55c-.51,1.06-9.88.5-9.92-2.59,0-1,3.47-2.69,5.09-2.28S277.64,99.16,277,100.55Z"/><path class="cls-1" d="M279.93,96.82c1.16-2.5-3.52-8.7-5.58-7.52-.92.53-1.55,4.38-.28,5.47S279.28,98.21,279.93,96.82Z"/><path class="cls-1" d="M266.71,102c-1.21,1.4-8.33-1.54-7.11-4.37.41-1,3.29-1.89,4.43-1S267.68,100.9,266.71,102Z"/><path class="cls-1" d="M280,88.11c.85-1.65-4.55-7.14-6.72-5-.74.75-.51,3.76.79,4.46S279.32,89.44,280,88.11Z"/><path class="cls-1" d="M223.92,58.39c-2.42,2.89-5,1.88-5.29,5.29s10.4,6.37,13.79,2.11.25-15.41-4.73-13.83C224.54,53,226,55.89,223.92,58.39Z"/><path class="cls-1" d="M238.59,73c-.51,1.07-9.88.51-9.92-2.58,0-1,3.47-2.7,5.1-2.28S239.25,71.59,238.59,73Z"/><path class="cls-1" d="M241.54,69.25c1.16-2.5-3.52-8.7-5.58-7.52-.91.53-1.54,4.38-.28,5.47S240.89,70.64,241.54,69.25Z"/><path class="cls-1" d="M228.32,74.47c-1.21,1.4-8.33-1.54-7.11-4.37.42-1,3.29-1.89,4.43-.95S229.3,73.33,228.32,74.47Z"/><path class="cls-1" d="M241.63,60.54c.84-1.65-4.55-7.15-6.72-4.95-.75.75-.52,3.76.78,4.46S240.94,61.87,241.63,60.54Z"/><path class="cls-1" d="M15.5.88c8.42,0,18.36,4.17,18.36,15.43,0,11.41-9.87,15.58-18.36,15.58H7.83V52.07H0V.88ZM7.83,25h5.92c6.73,0,11.77-2.19,11.77-8.48,0-5.49-4.24-8.78-10.38-8.78H7.83Z"/><path class="cls-1" d="M55.87,46.59c4.9,0,8.49-1.83,10.75-5.85l5.27,3.43c-3.81,6-8.78,8.78-16.38,8.78-11.63,0-18.43-8.41-18.43-19.31s8-19.45,18.43-19.45c9.94,0,17.18,7.31,17.18,17.19a23.67,23.67,0,0,1-.36,4.09H44.68C45.19,41.54,49.29,46.59,55.87,46.59Zm-.22-26.11c-5.7,0-9.21,4-10.53,9.21H64.87C64.57,24.65,60.84,20.48,55.65,20.48Z"/><path class="cls-1" d="M89.44,21.57V37.66c0,1,0,1.83.07,2.93.22,3.51,1.39,5.56,4.68,5.56a9.17,9.17,0,0,0,4.17-1l2.19,5.93a16.1,16.1,0,0,1-7.38,1.75c-5.34,0-8.71-2.48-10.17-6.29a20.55,20.55,0,0,1-1.1-7.31V21.57H77.08v-6.5H81.9l.37-8.71h7.17v8.71H99.6v6.5Z"/><path class="cls-1" d="M124.46,7c-5,0-8.55,2.34-8.55,6.58s4.75,5.85,10,7.68C133.17,23.7,141.72,27,141.72,37c0,11.41-10.24,15.94-18.28,15.94-7.61,0-13.31-2.49-18.8-7.9l5.49-5.19c4.61,4.61,8.19,6.14,13.38,6.14,5,0,9.88-2.41,9.88-8.26,0-5.34-5.34-7.24-11-9.22C115.4,26,108.08,22.6,108.08,14.19,108.08,4.53,115.4,0,123.73,0A25.35,25.35,0,0,1,139.9,5.48l-4.76,5.64A16.84,16.84,0,0,0,124.46,7Z"/><circle class="cls-1" cx="170.53" cy="33.13" r="17.11"/><circle cx="175.26" cy="37.85" r="12.38"/><circle class="cls-1" cx="165.93" cy="29.69" r="4.6"/><path class="cls-2" d="M159.05,15.07l.22,4.9c2.63-3.88,7.46-5.78,11.78-5.78,10.45,0,18.13,8.63,18.13,19.45,0,10-7.31,19.31-18.28,19.31a16.22,16.22,0,0,1-11.48-4.83V70.36h-7.54V15.07Zm.37,25.74a12.82,12.82,0,0,0,10.24,5.34c8,0,11.84-6.58,11.84-12.65C181.5,26.91,177,21,169.8,21a11.52,11.52,0,0,0-10.38,6.58Z"/><circle class="cls-1" cx="213.53" cy="33.13" r="17.11"/><circle cx="218.26" cy="37.85" r="12.38"/><circle class="cls-1" cx="208.93" cy="29.69" r="4.6"/><path class="cls-2" d="M233.06,33.57c0,10.82-8.12,19.38-19,19.38s-19-8.56-19-19.38,8-19.38,19-19.38S233.06,22.75,233.06,33.57ZM214,21c-6.58,0-11.33,5.63-11.33,12.58S207.46,46.15,214,46.15s11.34-5.71,11.34-12.58S220.63,21,214,21Z"/><path class="cls-1" d="M249.8,21.57V37.66c0,1,0,1.83.08,2.93.22,3.51,1.39,5.56,4.68,5.56a9.17,9.17,0,0,0,4.17-1l2.19,5.93a16.15,16.15,0,0,1-7.39,1.75c-5.34,0-8.7-2.48-10.16-6.29a20.33,20.33,0,0,1-1.1-7.31V21.57h-4.83v-6.5h4.83l.37-8.71h7.16v8.71H260v6.5Zm25.89,0V37.66c0,1,0,1.83.08,2.93.22,3.51,1.39,5.56,4.68,5.56a9.17,9.17,0,0,0,4.17-1l2.19,5.93a16.18,16.18,0,0,1-7.39,1.75c-5.34,0-8.7-2.48-10.16-6.29a20.33,20.33,0,0,1-1.1-7.31V21.57h-4.83v-6.5h4.83l.37-8.71h7.16v8.71h10.17v6.5Z"/><path class="cls-1" d="M309.48,46.59c4.9,0,8.48-1.83,10.75-5.85l5.26,3.43c-3.8,6-8.77,8.78-16.38,8.78-11.63,0-18.43-8.41-18.43-19.31s8.05-19.45,18.43-19.45c9.95,0,17.19,7.31,17.19,17.19a23.63,23.63,0,0,1-.37,4.09H298.29C298.8,41.54,302.89,46.59,309.48,46.59Zm-.22-26.11c-5.71,0-9.22,4-10.53,9.21h19.74C318.18,24.65,314.45,20.48,309.26,20.48Z"/><path class="cls-1" d="M342.46,20.84c2.19-3.87,5.48-6.65,9.36-6.65a15.5,15.5,0,0,1,4.24.51l-1.54,7.61A6.85,6.85,0,0,0,351,21.5c-3.58,0-6.36,2.12-8.41,5.71V52.07h-7.53v-37h7.17Z"/></g></g></svg>